<svg width="16" height="20" viewBox="0 0 16 20" fill="none" xmlns="http://www.w3.org/2000/svg">
  <path d="M14.264 9.05709H13.878V5.92741C13.858 2.08979 11.24 0 8.058 0C4.876 0 2.024 2.18778 2.124 5.92741L2.12 9.05509C2.12 9.05509 2.168 9.05909 1.928 9.05909C1.674 9.05909 0 9.35506 0 10.8469V18.0102C0 19.602 1.884 20 1.928 20H14.168C14.212 20 16 19.802 16 18.0102V10.9469C16 9.25507 14.308 9.06109 14.264 9.06109V9.05709ZM9.43 17.2423H6.576L7.168 14.3286C6.744 14.0466 6.462 13.5546 6.462 12.9947C6.462 12.1188 7.15 11.4069 8 11.4069C8.85 11.4069 9.538 12.1188 9.538 12.9947C9.538 13.5546 9.256 14.0446 8.832 14.3266L9.43 17.2403V17.2423ZM4.816 9.05709L4.82 5.9694C4.82 3.9796 6.034 2.38776 8.002 2.38776C9.97 2.38776 11.182 3.77962 11.182 5.9694V9.05709H4.816Z" fill="black"/>
</svg>
